<svg version="1.0" xmlns="http://www.w3.org/2000/svg"
 width="561.000000pt" height="552.000000pt" viewBox="0 0 561.000000 552.000000"
 preserveAspectRatio="xMidYMid meet">
<g transform="translate(0.000000,552.000000) scale(0.100000,-0.100000)"
fill="#1a2a5a" stroke="none">
<path d="M2075 3968 c-3 -7 -4 -294 -3 -638 l3 -625 632 -3 633 -2 5 22 c3 13
4 300 3 638 l-3 615 -633 3 c-501 2 -634 0 -637 -10z m769 -276 c74 -21 111
-63 126 -142 12 -62 0 -145 -26 -185 -16 -24 -16 -27 3 -48 35 -38 43 -64 43
-142 0 -124 -42 -184 -147 -205 -65 -14 -360 -4 -380 12 -19 15 -19 693 0 705
10 7 146 17 282 20 22 1 67 -6 99 -15z"/>
<path d="M2694 3543 c-42 -3 -53 -8 -57 -24 -5 -20 -2 -87 5 -94 7 -7 125 -8
136 -1 18 11 15 92 -4 110 -8 9 -18 15 -22 14 -4 -1 -30 -3 -58 -5z"/>
<path d="M2639 3248 c-5 -50 -4 -86 3 -105 7 -21 14 -23 83 -23 85 0 89 5 83
91 l-3 44 -82 3 c-62 2 -83 0 -84 -10z"/>
<path d="M3440 3891 c-6 -13 -10 -229 -10 -633 0 -464 -3 -617 -12 -626 -9 -9
-165 -12 -639 -12 -624 0 -628 0 -634 -20 -16 -51 -32 -50 681 -50 646 0 664
1 674 19 14 27 14 1295 0 1322 -6 10 -19 19 -30 19 -11 0 -24 -9 -30 -19z"/>
<path d="M1167 2203 c-4 -3 -7 -75 -7 -158 0 -123 3 -155 15 -165 10 -9 43
-11 106 -8 82 4 94 7 111 29 17 20 19 32 13 74 -4 27 -6 81 -5 119 1 58 -2 72
-21 92 -21 22 -30 24 -114 24 -50 0 -95 -3 -98 -7z m153 -72 c14 -27 13 -28
-14 -46 -27 -18 -53 -11 -61 16 -14 43 53 69 75 30z m0 -131 c32 -32 20 -61
-27 -62 -51 -2 -66 20 -43 63 14 25 45 24 70 -1z"/>
<path d="M1571 2184 c-19 -24 -21 -40 -21 -144 0 -150 7 -162 103 -168 84 -5
134 4 146 27 16 29 21 101 14 190 -8 114 -16 121 -132 121 -85 0 -91 -1 -110
-26z m159 -54 c6 -11 10 -57 8 -103 l-3 -82 -44 -3 c-55 -4 -61 4 -61 90 0 94
11 118 54 118 25 0 38 -6 46 -20z"/>
<path d="M1994 2202 c-26 -17 -34 -56 -34 -167 0 -110 1 -117 25 -140 22 -22
32 -25 105 -25 73 0 83 3 105 25 24 23 25 30 25 140 0 111 -8 150 -34 167 -6
4 -49 8 -96 8 -47 0 -90 -4 -96 -8z m146 -72 c6 -11 10 -57 8 -103 l-3 -82
-49 -3 c-32 -2 -52 1 -57 10 -12 18 -11 141 1 172 8 22 16 26 49 26 30 0 43
-5 51 -20z"/>
<path d="M2383 2204 c-10 -4 -13 -46 -13 -160 l0 -154 25 -10 c41 -16 55 -3
55 50 0 61 7 80 30 80 20 0 49 -37 70 -88 15 -38 38 -53 68 -45 29 7 28 12
-13 98 l-35 73 30 68 c17 37 28 74 25 81 -8 23 -58 11 -71 -17 -48 -101 -48
-101 -74 -98 -23 3 -25 8 -30 63 -5 55 -7 60 -30 62 -14 1 -31 -1 -37 -3z"/>
<path d="M2754 2195 c-4 -8 6 -81 22 -161 30 -160 33 -164 108 -164 59 0 67
14 113 210 9 36 16 79 17 95 1 27 -2 30 -29 30 -32 0 -33 -3 -71 -165 -28
-123 -47 -121 -70 10 -24 141 -31 160 -60 160 -13 0 -27 -7 -30 -15z"/>
<path d="M3196 2188 c-13 -20 -75 -244 -79 -288 -1 -10 9 -16 29 -18 27 -3 33
1 42 27 19 53 103 54 129 2 14 -30 36 -43 58 -35 14 6 16 15 11 53 -7 50 -31
159 -50 231 l-12 45 -56 3 c-50 3 -59 0 -72 -20z m73 -72 c6 -7 12 -31 14 -52
2 -37 1 -39 -28 -39 -28 0 -30 2 -29 37 2 63 18 84 43 54z"/>
<path d="M3524 2196 c-3 -8 -4 -76 -2 -151 3 -132 4 -138 28 -157 21 -17 36
-19 107 -16 113 4 116 7 121 152 6 148 -1 186 -32 186 -13 0 -28 -6 -34 -13
-7 -7 -13 -66 -14 -133 l-3 -119 -39 -3 c-21 -2 -43 1 -48 6 -6 6 -10 55 -9
110 2 118 -8 152 -44 152 -14 0 -28 -6 -31 -14z"/>
<path d="M3936 2202 c-7 -12 -9 -312 -2 -319 10 -10 112 -16 151 -9 29 6 35
11 35 31 0 26 -12 32 -75 37 l-30 3 -2 110 c-4 146 -6 155 -43 155 -16 0 -31
-4 -34 -8z"/>
<path d="M4223 2199 c-16 -16 2 -49 27 -49 32 0 40 -32 40 -153 l0 -115 28 -5
c46 -9 51 5 54 135 3 103 6 122 21 129 9 5 25 13 35 18 9 4 17 17 17 27 0 17
-10 19 -105 22 -71 2 -109 -1 -117 -9z"/>
</g>
</svg>
