<svg version="1.2" xmlns="http://www.w3.org/2000/svg" viewBox="0 0 165 155" width="165" height="155">
	<title>logo - Copy</title>
	<style>
		<!-- .s0 { fill: #1a2a5a }  -->
		.s0 { fill:rgb(255, 255, 255) } 
	</style>
	<g>
		<path class="s0" d="m12.5 5.2c-0.3 0.7-0.4 29.4-0.3 63.8l0.3 62.5 63.2 0.3 63.3 0.2 0.5-2.2c0.3-1.3 0.4-30 0.3-63.8l-0.3-61.5-63.3-0.3c-50.1-0.2-63.4 0-63.7 1zm76.9 27.6c7.4 2.1 11.1 6.3 12.6 14.2 1.2 6.2 0 14.5-2.6 18.5-1.6 2.4-1.6 2.7 0.3 4.8 3.5 3.8 4.3 6.4 4.3 14.2 0 12.4-4.2 18.4-14.7 20.5-6.5 1.4-36 0.4-38-1.2-1.9-1.5-1.9-69.3 0-70.5 1-0.7 14.6-1.7 28.2-2 2.2-0.1 6.7 0.6 9.9 1.5z"/>
		<path class="s0" d="m74.4 47.7c-4.2 0.3-5.3 0.8-5.7 2.4-0.5 2-0.2 8.7 0.5 9.4 0.7 0.7 12.5 0.8 13.6 0.1 1.8-1.1 1.5-9.2-0.4-11-0.8-0.9-1.8-1.5-2.2-1.4-0.4 0.1-3 0.3-5.8 0.5z"/>
		<path class="s0" d="m68.9 77.2c-0.5 5-0.4 8.6 0.3 10.5 0.7 2.1 1.4 2.3 8.3 2.3 8.5 0 8.9-0.5 8.3-9.1l-0.3-4.4-8.2-0.3c-6.2-0.2-8.3 0-8.4 1z"/>
		<path class="s0" d="m149 12.9c-0.6 1.3-1 22.9-1 63.3 0 46.4-0.3 61.7-1.2 62.6-0.9 0.9-16.5 1.2-63.9 1.2-62.4 0-62.8 0-63.4 2-1.6 5.1-3.2 5 68.1 5 64.6 0 66.4-0.1 67.4-1.9 1.4-2.7 1.4-129.5 0-132.2-0.6-1-1.9-1.9-3-1.9-1.1 0-2.4 0.9-3 1.9z"/>
	</g>
</svg>